<svg width="380" height="135" viewBox="0 0 380 135" fill="none" xmlns="http://www.w3.org/2000/svg">
<path fill-rule="evenodd" clip-rule="evenodd" d="M40.4461 0L38.4447 0.220367L0 4.45312V93V94.4062V95L7.4506 97L68.7807 113.463L70.7807 114L72.7807 113.827L147.828 107.334L160 106.281V104.275V35.3281L101.331 22.4091L99.3309 21.9688L97.3309 23.0502L70.7807 37.4062L42.4308 2.44739L40.4461 0ZM38.4195 4.24731L4 8.0369V91.9321L7.97813 93H37.8638L38.4195 4.24731ZM97.3309 99.8365V27.5975L72.7807 40.8721V103.921L97.3309 99.8365ZM68.7807 41.2906V103.423L41.8601 93.6038L42.3914 8.7493L67.6739 39.9257L68.7807 41.2906Z" fill="#71BC78"/>
<path d="M15.36 77.04C26.8 77.04 33.84 70.48 33.76 58.48C33.6 49.04 33.6 39.76 33.76 30.4C33.76 28.48 34.56 27.44 36.24 27.12L38.32 26.64V24.24H14.08V26.64L16.24 27.12C17.84 27.44 18.72 28.48 18.72 30.4C18.8 40.64 18.8 50.88 18.72 61.2C18.64 69.36 17.76 74.72 15.2 74.72C14.24 74.72 13.6 74 13.04 73.04C9.68 67.68 6.64 62.4 3.6 56.56H1.2C0.88 62.48 0.64 69.28 0.48 75.2C5.92 76.4 12 77.04 15.36 77.04ZM85.1181 71.76C83.2781 71.28 82.3981 70.24 82.3181 68.32C82.2381 58.72 82.2381 48.16 82.3181 37.92L80.1581 37.84L64.3181 40V42.4L66.1581 42.96C67.5981 43.28 68.3181 44.24 68.3181 45.84C68.4781 53.2 68.5581 61.04 68.3981 68.56C67.1981 69.68 65.7581 70.4 63.9181 70.4C60.6381 70.4 59.0381 67.6 58.9581 63.6C58.7981 55.2 58.8781 46.96 58.9581 37.92L56.7181 37.84L40.7981 40V42.4L42.6381 42.96C44.1581 43.36 44.9581 44.24 44.9581 45.84C45.1181 52.48 45.0381 59.52 44.9581 66C44.9581 72.56 49.4381 77.04 56.2381 77.04C61.7581 77.04 65.8381 75.04 69.1981 71.68L71.0381 76.4H72.7181C77.4381 75.52 81.7581 74.88 85.9981 74.24V72L85.1181 71.76ZM113.509 38.48V40.8C114.469 42.32 116.069 46.16 117.189 48.8C117.829 50.16 118.229 51.52 117.429 53.36C116.389 55.92 114.949 59.52 113.189 63.6C110.549 57.44 107.829 50.8 105.349 44.8C104.549 42.88 105.189 41.76 106.869 41.28L108.309 40.8V38.48H86.4694V40.8L87.5094 41.36C88.5494 41.84 89.1894 42.4 89.8294 43.68C95.1094 54.48 100.789 66.64 104.949 76.32H110.389C113.509 69.12 117.189 61.12 120.389 53.92C121.429 51.52 122.389 49.6 123.829 47.12C125.269 44.56 126.709 42.32 127.749 40.8V38.48H113.509ZM164.018 54.32C164.497 44.4 158.338 37.44 148.258 37.44C137.138 37.44 128.577 45.92 128.577 58C128.577 69.12 135.857 76.96 148.258 76.96C155.617 76.96 160.498 74 163.298 68.08L162.097 66.4C160.257 67.52 158.338 68.24 155.538 68.24C149.218 68.24 144.418 64.56 142.578 58C149.058 58 155.538 57.92 161.858 57.84L164.018 54.32ZM141.777 51.6C141.777 45.04 144.017 40.16 146.818 40.16C149.378 40.16 151.458 46.56 150.898 55.2C147.938 55.28 145.057 55.36 142.018 55.36C141.858 54.16 141.777 52.88 141.777 51.6ZM193.601 70.64C192.641 71.12 191.281 71.6 189.841 71.6C187.041 71.6 185.601 69.84 185.521 65.92C185.441 58.8 185.441 50.88 185.441 42L191.121 42.32L194.081 40.56V38.48H185.441C185.521 34.64 185.521 30.72 185.521 26.56H183.121C179.841 30.48 176.401 34.48 172.801 38.48H167.361V41.04L171.681 41.28C171.761 49.6 171.761 57.92 171.681 66.24C171.601 74 176.241 77.04 182.801 77.04C187.921 77.04 192.241 75.28 194.721 73.28L193.601 70.64Z" transform="translate(184 23)" fill="#71BC78"/>
</svg>
